<svg version="1.0" class="map" xmlns="http://www.w3.org/2000/svg" viewBox="38 -10 780 365" preserveAspectRatio="xMidYMid meet">
    <g>
        <path class="area1" stroke-linejoin="round" stroke-linecap="round" fill-rule="evenodd" stroke="#fff" stroke-opacity="1" stroke-width="1" fill="#AA1D0B" fill-opacity="1" class="leaflet-clickable" d="M623 129L619 126L617 121L618 120L615 119L616 118L613 117L611 119L612 120L609 126L606 127L606 125L603 124L603 118L599 116L606 106L611 107L617 113L616 114L621 111L624 111L623 107L630 97L631 101L629 100L629 106L627 107L628 109L622 120L623 128z"></path>
    </g>
    <g>
        <path class="area2" stroke-linejoin="round" stroke-linecap="round" fill-rule="evenodd" stroke="#fff" stroke-opacity="1" stroke-width="1" fill="#AA1D0B" fill-opacity="1" class="leaflet-clickable" d="M185 330L185 329z"></path>
    </g>
    <g>
        <path class="area3" stroke-linejoin="round" stroke-linecap="round" fill-rule="evenodd" stroke="#fff" stroke-opacity="1" stroke-width="1" fill="#AA1D0B" fill-opacity="1" class="leaflet-clickable" d="M185 330L186 329L184 327L186 327L186 329L193 323L192 330L196 327L195 326L199 324L198 323L201 324L204 323L206 321L205 320L207 320L207 318L204 317L205 316L194 305L189 306L197 303L201 305L207 302L211 297L220 308L227 304L236 302L238 304L236 304L233 307L233 309L236 308L236 312L242 318L242 320L246 322L263 316L279 316L279 314L283 311L293 327L296 324L298 324L295 329L302 339L254 337L251 338L226 336L228 333L203 333L202 335L174 335L183 330L186 330z"></path>
    </g>
    <g>
        <path class="area4" stroke-linejoin="round" stroke-linecap="round" fill-rule="evenodd" stroke="#fff" stroke-opacity="1" stroke-width="1" fill="#AA1D0B" fill-opacity="1" class="leaflet-clickable" d="M335 241L338 249L338 253L335 257L340 258L343 261L345 261L345 263L349 263L348 265L351 270L349 270L348 272L343 273L340 271L342 266L340 266L339 263L340 264L338 266L336 266L336 262L331 263L329 265L331 267L327 269L328 272L329 271L330 274L330 272L332 272L332 274L329 277L328 276L328 278L326 279L315 266L309 267L300 272L298 270L299 267L297 269L286 258L294 255L300 250L298 245L300 240L307 244L308 247L322 240L327 235L332 234L333 240z"></path>
    </g>
    <g>
        <path class="area5" stroke-linejoin="round" stroke-linecap="round" fill-rule="evenodd" stroke="#fff" stroke-opacity="1" stroke-width="1" fill="#AA1D0B" fill-opacity="1" class="leaflet-clickable" d="M617 91L616 90L614 92L612 89L610 89L611 86L607 83L603 85L599 82L595 87L593 85L590 86L587 80L595 80L597 78L600 81L605 79L607 81L606 82L611 81L614 88L615 87L617 90z"></path>
    </g>
    <g>
        <path class="area6" stroke-linejoin="round" stroke-linecap="round" fill-rule="evenodd" stroke="#fff" stroke-opacity="1" stroke-width="1" fill="#AA1D0B" fill-opacity="1" class="leaflet-clickable" d="M530 46L531 49L529 51L532 54L532 56L530 58L531 61L529 61L541 64L540 65L543 68L541 68L541 70L537 70L538 73L539 72L541 74L541 78L545 78L541 85L537 87L534 86L533 89L531 89L530 92L532 95L532 99L528 104L527 103L525 109L520 114L520 118L516 126L506 122L503 119L503 117L497 115L497 117L487 109L489 104L488 103L490 103L491 99L488 100L484 98L488 92L481 86L486 76L493 68L492 67L495 66L496 69L501 64L501 62L504 60L506 62L510 56L508 54L510 52L518 55L520 53L519 52L525 46L529 46z"></path>
    </g>
    <g>
        <path class="area7" stroke-linejoin="round" stroke-linecap="round" fill-rule="evenodd" stroke="#fff" stroke-opacity="1" stroke-width="1" fill="#AA1D0B" fill-opacity="1" class="leaflet-clickable" d="M449 119L471 135L470 141L468 141L463 147L462 146L459 149L468 154L466 160L472 166L474 167L478 163L482 164L481 171L484 169L492 186L485 186L485 190L481 190L482 191L479 194L477 194L476 197L478 207L474 209L473 213L470 210L471 209L463 207L463 201L461 199L454 196L456 192L455 187L460 186L462 184L463 185L465 183L464 181L467 177L469 177L472 169L466 171L465 169L465 171L463 172L463 170L459 168L461 164L459 164L458 161L454 163L455 159L449 159L442 155L435 159L428 166L425 165L424 164L428 159L429 155L421 157L422 154L417 151L405 149L399 146L396 141L399 134L403 132L404 127L407 123L406 118L407 115L409 115L408 112L410 107L420 110L426 122L441 127L444 126L444 124L449 119z"></path>
    </g>
    <g>
        <path class="area8" stroke-linejoin="round" stroke-linecap="round" fill-rule="evenodd" stroke="#fff" stroke-opacity="1" stroke-width="1" fill="#AA1D0B" fill-opacity="1" class="leaflet-clickable" d="M734 309L731 314L734 315L734 317L732 317L733 321L725 321L724 319L722 319L727 311L730 312L733 309z"></path>
    </g>
    <g>
        <path class="area9" stroke-linejoin="round" stroke-linecap="round" fill-rule="evenodd" stroke="#fff" stroke-opacity="1" stroke-width="1" fill="#AA1D0B" fill-opacity="1" class="leaflet-clickable" d="M481 86L488 92L484 98L488 100L491 99L491 103L490 102L488 104L487 108L492 114L494 114L497 117L497 115L499 116L497 121L500 124L500 126L492 132L487 130L484 126L480 127L476 131L473 128L472 129L472 127L469 126L472 121L465 117L461 109L458 107L454 107L457 99L461 97L461 91L464 87L464 83L467 82L469 76L475 80z"></path>
    </g>
    <g>
        <path class="area10" stroke-linejoin="round" stroke-linecap="round" fill-rule="evenodd" stroke="#fff" stroke-opacity="1" stroke-width="1" fill="#AA1D0B" fill-opacity="1" class="leaflet-clickable" d="M603 236L604 239L602 238L602 240L600 242L599 241L594 248L595 247L592 248L592 246L589 243L593 240L592 232L594 235L598 233L599 234L598 231L603 228L603 235z"></path>
    </g>
    <g>
        <path class="area11" stroke-linejoin="round" stroke-linecap="round" fill-rule="evenodd" stroke="#fff" stroke-opacity="1" stroke-width="1" fill="#AA1D0B" fill-opacity="1" class="leaflet-clickable" d="M623 129L622 130L625 133L623 135L622 134L622 138L620 140L620 144L622 146L620 145L618 147L611 142L610 143L608 137L607 138L604 133L606 131L607 134L610 134L614 123L613 120L611 120L612 117L615 118L615 120L618 120L618 124L623 129z"></path>
    </g>
    <g>
        <path class="area12" stroke-linejoin="round" stroke-linecap="round" fill-rule="evenodd" stroke="#fff" stroke-opacity="1" stroke-width="1" fill="#AA1D0B" fill-opacity="1" class="leaflet-clickable" d="M553 24L546 35L548 37L541 47L545 47L544 49L547 51L546 54L551 57L555 56L555 58L552 59L552 63L544 63L543 64L547 66L543 68L540 65L541 64L532 61L531 62L530 59L532 55L529 52L529 50L531 49L530 46L524 46L525 47L521 49L519 55L511 52L521 42L521 40L524 39L520 35L524 29L522 27L528 21L529 18L529 4L553 24z"></path>
    </g>
    <g>
        <path class="area12" stroke-linejoin="round" stroke-linecap="round" fill-rule="evenodd" stroke="#fff" stroke-opacity="1" stroke-width="1" fill="#AA1D0B" fill-opacity="1" class="leaflet-clickable" d="M580 119L584 127L590 125L594 127L595 132L594 133L592 131L588 133L564 161L562 161L559 158L556 159L552 157L543 160L527 153L534 143L530 143L527 140L528 139L523 136L521 132L522 130L520 128L521 123L519 120L521 114L520 113L521 114L526 109L525 106L529 102L539 113L540 112L543 114L545 114L553 105L555 105L555 111L559 111L561 113L563 123L563 121L570 122L571 120L573 120L573 122L577 122L580 119z"></path>
    </g>
    <g>
        <path class="area14" stroke-linejoin="round" stroke-linecap="round" fill-rule="evenodd" stroke="#fff" stroke-opacity="1" stroke-width="1" fill="#AA1D0B" fill-opacity="1" class="leaflet-clickable" d="M590 86L599 103L605 101L605 97L607 95L609 95L611 99L615 96L619 96L621 100L620 101L622 103L621 104L623 104L620 112L617 114L611 107L606 106L605 109L594 120L590 113L590 109L585 104L586 101L585 100L581 104L582 101L579 96L579 94L586 94L588 92L582 89L585 86L589 84L590 85z"></path>
    </g>
    <g>
        <path class="area15" stroke-linejoin="round" stroke-linecap="round" fill-rule="evenodd" stroke="#fff" stroke-opacity="1" stroke-width="1" fill="#AA1D0B" fill-opacity="1" class="leaflet-clickable" d="M615 51L612 54L612 56L610 55L606 57L608 59L603 60L603 53L605 48L609 48L608 47L610 50L614 51z"></path>
    </g>
    <g>
        <path class="area16" stroke-linejoin="round" stroke-linecap="round" fill-rule="evenodd" stroke="#fff" stroke-opacity="1" stroke-width="1" fill="#003399" fill-opacity="1" class="leaflet-clickable" d="M640 66L633 65L630 66L630 68L628 67L626 69L624 66L625 65L617 56L617 54L613 53L615 51L624 52L629 56L628 59L631 62L637 62L640 65z"></path>
    </g>
    <g>
        <path class="area17" stroke-linejoin="round" stroke-linecap="round" fill-rule="evenodd" stroke="#fff" stroke-opacity="1" stroke-width="1" fill="#003399" fill-opacity="1" class="leaflet-clickable" d="M627 73L627 77L625 77L623 82L622 79L617 78L617 76L609 78L609 76L627 73z"></path>
    </g>
    <g>
        <path class="area18" stroke-linejoin="round" stroke-linecap="round" fill-rule="evenodd" stroke="#fff" stroke-opacity="1" stroke-width="1" fill="#003399" fill-opacity="1" class="leaflet-clickable" d="M638 80L639 82L637 82L637 86L635 86L635 88L632 91L631 86L632 87L633 84L627 80L628 77L631 76L631 80L638 80z"></path>
    </g>
    <g>
        <path class="area19" stroke-linejoin="round" stroke-linecap="round" fill-rule="evenodd" stroke="#fff" stroke-opacity="1" stroke-width="1" fill="#AA1D0B" fill-opacity="1" class="leaflet-clickable" d="M606 71L610 75L609 78L622 78L622 82L624 84L623 87L618 90L618 92L610 81L599 81L599 79L597 78L595 80L592 79L593 76L591 74L594 70L600 71L601 76L603 76L605 73z"></path>
    </g>
    <g>
        <path class="area20" stroke-linejoin="round" stroke-linecap="round" fill-rule="evenodd" stroke="#fff" stroke-opacity="1" stroke-width="1" fill="#003399" fill-opacity="1" class="leaflet-clickable" d="M629 76L627 80L630 83L626 87L622 82L624 77L626 77L627 74L629 75z"></path>
    </g>
    <g>
        <path class="area21" stroke-linejoin="round" stroke-linecap="round" fill-rule="evenodd" stroke="#fff" stroke-opacity="1" stroke-width="1" fill="#003399" fill-opacity="1" class="leaflet-clickable" d="M644 82L645 83L643 85L643 88L640 89L640 85L637 91L631 94L635 86L637 86L637 82L642 81z"></path>
    </g>
    <g>
        <path class="area22" stroke-linejoin="round" stroke-linecap="round" fill-rule="evenodd" stroke="#fff" stroke-opacity="1" stroke-width="1" fill="#003399" fill-opacity="1" class="leaflet-clickable" d="M646 75L648 78L648 85L646 85L646 81L642 77L644 77L645 75z"></path>
    </g>
    <g>
        <path class="area23" stroke-linejoin="round" stroke-linecap="round" fill-rule="evenodd" stroke="#fff" stroke-opacity="1" stroke-width="1" fill="#003399" fill-opacity="1" class="leaflet-clickable" d="M644 73L641 75L636 71L637 69L641 72L644 70L644 73z"></path>
    </g>
    <g>
        <path class="area24" stroke-linejoin="round" stroke-linecap="round" fill-rule="evenodd" stroke="#fff" stroke-opacity="1" stroke-width="1" fill="#003399" fill-opacity="1" class="leaflet-clickable" d="M640 66L648 74L647 77L647 75L645 73L644 74L644 70L640 72L639 70L638 71L638 69L634 70L632 66L640 66z"></path>
    </g>
    <g>
        <path class="area25" stroke-linejoin="round" stroke-linecap="round" fill-rule="evenodd" stroke="#fff" stroke-opacity="1" stroke-width="1" fill="#003399" fill-opacity="1" class="leaflet-clickable" d="M644 73L647 74L645 74L644 77L640 77L637 73L640 75L644 73z"></path>
    </g>
    <g>
        <path class="area26" stroke-linejoin="round" stroke-linecap="round" fill-rule="evenodd" stroke="#fff" stroke-opacity="1" stroke-width="1" fill="#AA1D0B" fill-opacity="1" class="leaflet-clickable" d="M610 89L604 89L606 91L605 92L602 89L599 90L596 89L595 87L598 82L603 85L607 83L610 86L610 88z"></path>
    </g>
    <g>
        <path class="area27" stroke-linejoin="round" stroke-linecap="round" fill-rule="evenodd" stroke="#fff" stroke-opacity="1" stroke-width="1" fill="#AA1D0B" fill-opacity="1" class="leaflet-clickable" d="M595 87L596 89L599 90L602 89L605 93L606 92L604 89L612 89L614 92L616 90L618 92L621 91L627 95L623 99L618 96L610 99L610 96L607 95L605 97L605 101L603 103L599 103L590 86L595 86z"></path>
    </g>
    <g>
        <path class="area28" stroke-linejoin="round" stroke-linecap="round" fill-rule="evenodd" stroke="#fff" stroke-opacity="1" stroke-width="1" fill="#003399" fill-opacity="1" class="leaflet-clickable" d="M629 97L623 106L624 110L622 113L620 111L623 105L620 102L620 98L621 97L623 99L627 95L629 97z"></path>
    </g>
    <g>
        <path class="area29" stroke-linejoin="round" stroke-linecap="round" fill-rule="evenodd" stroke="#fff" stroke-opacity="1" stroke-width="1" fill="#AA1D0B" fill-opacity="1" class="leaflet-clickable" d="M609 142L617 146L615 150L616 159L613 164L607 165L607 169L605 169L602 166L605 159L593 156L588 159L585 158L585 156L581 153L586 149L579 144L583 139L585 141L590 139L593 142L593 144L595 144L595 146L598 145L599 143L596 142L598 141L600 141L602 145L606 147L606 144L609 142z"></path>
    </g>
    <g>
        <path class="area30" stroke-linejoin="round" stroke-linecap="round" fill-rule="evenodd" stroke="#fff" stroke-opacity="1" stroke-width="1" fill="#AA1D0B" fill-opacity="1" class="leaflet-clickable" d="M616 159L617 172L619 169L623 175L624 180L622 184L626 184L626 187L628 185L629 186L627 192L620 199L621 198L622 201L616 209L616 214L613 216L612 213L606 209L600 211L597 210L596 208L589 209L579 206L589 174L584 171L583 172L583 168L582 169L577 164L578 161L579 162L580 159L583 160L587 157L588 158L594 156L597 158L604 159L601 166L607 169L606 165L613 164L616 159z"></path>
    </g>
    <g>
        <path class="area31" stroke-linejoin="round" stroke-linecap="round" fill-rule="evenodd" stroke="#fff" stroke-opacity="1" stroke-width="1" fill="#AA1D0B" fill-opacity="1" class="leaflet-clickable" d="M585 158L583 160L580 159L577 164L582 169L583 168L583 172L584 171L589 174L579 206L589 209L596 208L599 211L601 211L595 215L594 218L592 218L595 223L593 225L588 222L584 222L581 219L576 219L576 217L570 213L572 209L571 206L577 204L570 202L565 192L538 176L532 174L541 160L545 160L547 158L548 159L552 157L564 161L579 144L586 149L582 153L585 157z"></path>
    </g>
    <g>
        <path class="area32" stroke-linejoin="round" stroke-linecap="round" fill-rule="evenodd" stroke="#fff" stroke-opacity="1" stroke-width="1" fill="#003399" fill-opacity="1" class="leaflet-clickable" d="M514 177L511 176L513 174L512 169L518 162L524 172L518 172L514 177z"></path>
    </g>
    <g>
        <path class="area33" stroke-linejoin="round" stroke-linecap="round" fill-rule="evenodd" stroke="#fff" stroke-opacity="1" stroke-width="1" fill="#AA1D0B" fill-opacity="1" class="leaflet-clickable" d="M519 119L521 122L520 127L523 136L527 138L527 140L530 143L534 143L527 153L541 160L532 174L540 178L538 181L536 192L532 193L530 197L528 197L523 202L525 204L524 205L518 202L516 198L513 203L510 202L508 199L512 195L506 187L510 184L519 172L523 172L520 164L518 162L516 164L516 162L510 158L511 159L507 161L507 163L503 162L504 161L502 161L499 158L499 150L495 148L495 146L490 145L491 140L489 137L483 137L483 133L486 131L486 129L489 132L497 130L500 126L500 124L497 121L499 116L503 117L503 119L511 125L516 126L519 120z"></path>
    </g>
    <g>
        <path class="area34" stroke-linejoin="round" stroke-linecap="round" fill-rule="evenodd" stroke="#fff" stroke-opacity="1" stroke-width="1" fill="#AA1D0B" fill-opacity="1" class="leaflet-clickable" d="M658 264L659 266L669 266L675 273L677 272L679 267L681 268L681 273L683 277L681 282L682 284L689 286L698 295L698 297L676 315L674 319L676 323L679 323L681 327L683 327L683 329L684 328L686 330L684 333L688 333L689 338L692 340L659 340L658 339L660 337L659 334L661 330L668 323L667 322L661 324L662 322L660 322L658 326L657 325L652 329L650 329L645 324L649 325L652 320L650 311L653 310L653 305L651 306L649 302L640 305L641 302L638 295L641 295L649 290L652 293L654 292L656 296L663 291L662 284L657 284L656 281L652 283L655 284L652 287L651 286L651 288L647 288L635 278L615 290L615 270L619 270L621 267L624 266L623 264L627 262L625 259L628 256L626 253L625 254L643 254L644 258L650 254L653 260L658 263z"></path>
    </g>
    <g>
        <path class="area35" stroke-linejoin="round" stroke-linecap="round" fill-rule="evenodd" stroke="#fff" stroke-opacity="1" stroke-width="1" fill="#AA1D0B" fill-opacity="1" class="leaflet-clickable" d="M618 69L621 68L622 71L612 76L610 76L604 69L607 68L612 71L614 71L613 70L615 68L618 69z"></path>
    </g>
    <g>
        <path class="area36" stroke-linejoin="round" stroke-linecap="round" fill-rule="evenodd" stroke="#fff" stroke-opacity="1" stroke-width="1" fill="#AA1D0B" fill-opacity="1" class="leaflet-clickable" d="M607 224L609 226L605 228L602 227L602 229L598 231L599 234L593 234L590 226L603 225L601 222L602 221L606 223z"></path>
    </g>
    <g>
        <path class="area37" stroke-linejoin="round" stroke-linecap="round" fill-rule="evenodd" stroke="#fff" stroke-opacity="1" stroke-width="1" fill="#003399" fill-opacity="1" class="leaflet-clickable" d="M609 226L613 230L613 232L609 234L608 233L608 235L604 237L602 233L604 232L601 227L606 228L609 226z"></path>
    </g>
    <g>
        <path class="area38" stroke-linejoin="round" stroke-linecap="round" fill-rule="evenodd" stroke="#fff" stroke-opacity="1" stroke-width="1" fill="#003399" fill-opacity="1" class="leaflet-clickable" d="M617 225L617 231L619 231L623 235L623 240L619 242L618 239L615 238L613 242L610 243L608 239L608 241L606 242L604 240L603 242L603 236L604 237L606 235L607 236L608 233L612 233L613 230L615 230L614 225L617 225z"></path>
    </g>
    <g>
        <path class="area39" stroke-linejoin="round" stroke-linecap="round" fill-rule="evenodd" stroke="#fff" stroke-opacity="1" stroke-width="1" fill="#003399" fill-opacity="1" class="leaflet-clickable" d="M617 225L614 226L616 230L615 231L607 224L608 221L617 224z"></path>
    </g>
    <g>
        <path class="area40" stroke-linejoin="round" stroke-linecap="round" fill-rule="evenodd" stroke="#fff" stroke-opacity="1" stroke-width="1" fill="#AA1D0B" fill-opacity="1" class="leaflet-clickable" d="M608 211L606 215L610 219L610 221L602 217L604 215L605 216L605 213L602 212L601 215L600 214L597 217L596 216L598 219L596 221L600 221L598 223L599 224L594 226L593 225L595 223L592 218L594 218L594 216L597 215L597 213L604 209L606 209L607 211z"></path>
    </g>
    <g>
        <path class="area41" stroke-linejoin="round" stroke-linecap="round" fill-rule="evenodd" stroke="#fff" stroke-opacity="1" stroke-width="1" fill="#AA1D0B" fill-opacity="1" class="leaflet-clickable" d="M704 300L703 305L700 305L699 308L697 306L697 308L701 310L702 307L706 305L706 311L704 313L703 312L705 314L691 319L690 318L689 321L686 322L689 323L688 327L698 332L700 318L710 316L711 319L714 320L710 324L707 337L708 340L693 340L687 333L685 333L686 330L675 322L674 317L694 299L695 300L698 297L698 301L700 303L703 300z"></path>
    </g>
    <g>
        <path class="area42" stroke-linejoin="round" stroke-linecap="round" fill-rule="evenodd" stroke="#fff" stroke-opacity="1" stroke-width="1" fill="#003399" fill-opacity="1" class="leaflet-clickable" d="M723 313L720 313L718 317L715 319L714 314L712 314L711 317L710 316L701 318L698 332L692 330L690 327L689 328L689 323L686 322L689 321L689 319L693 318L694 316L695 317L704 314L705 313L703 313L705 313L706 311L708 313L713 313L716 312L717 309L719 310L720 308L722 308L722 311z"></path>
    </g>
    <g>
        <path class="area43" stroke-linejoin="round" stroke-linecap="round" fill-rule="evenodd" stroke="#fff" stroke-opacity="1" stroke-width="1" fill="#AA1D0B" fill-opacity="1" class="leaflet-clickable" d="M723 313L724 317L722 319L735 322L736 326L731 327L731 330L726 326L723 331L718 332L718 322L716 321L718 319L717 315L722 313z"></path>
    </g>
    <g>
        <path class="area44" stroke-linejoin="round" stroke-linecap="round" fill-rule="evenodd" stroke="#fff" stroke-opacity="1" stroke-width="1" fill="#003399" fill-opacity="1" class="leaflet-clickable" d="M715 294L716 293L718 295L718 299L717 298L712 300L715 301L715 307L713 309L712 308L708 310L709 307L706 305L707 304L705 302L707 298L712 299L712 296L715 293z"></path>
    </g>
    <g>
        <path class="area45" stroke-linejoin="round" stroke-linecap="round" fill-rule="evenodd" stroke="#fff" stroke-opacity="1" stroke-width="1" fill="#003399" fill-opacity="1" class="leaflet-clickable" d="M705 301L709 308L708 310L712 309L711 308L714 309L714 305L716 307L716 312L708 314L706 310L706 305L700 310L698 310L697 307L698 306L700 308L700 306L705 301z"></path>
    </g>
    <g>
        <path class="area46" stroke-linejoin="round" stroke-linecap="round" fill-rule="evenodd" stroke="#fff" stroke-opacity="1" stroke-width="1" fill="#AA1D0B" fill-opacity="1" class="leaflet-clickable" d="M708 340L707 337L710 325L714 320L711 319L712 314L715 315L715 319L717 317L718 318L718 320L716 320L718 325L718 332L723 331L725 326L731 330L731 327L736 326L739 323L739 321L741 321L743 317L742 316L745 314L741 316L738 314L737 309L740 306L744 308L745 307L745 311L754 340L716 340z"></path>
    </g>
    <g>
        <path class="area47" stroke-linejoin="round" stroke-linecap="round" fill-rule="evenodd" stroke="#fff" stroke-opacity="1" stroke-width="1" fill="#AA1D0B" fill-opacity="1" class="leaflet-clickable" d="M745 307L744 308L740 306L737 309L737 311L736 308L735 309L731 307L732 305L734 305L734 301L739 297L743 299z"></path>
    </g>
    <g>
        <path class="area48" stroke-linejoin="round" stroke-linecap="round" fill-rule="evenodd" stroke="#fff" stroke-opacity="1" stroke-width="1" fill="#AA1D0B" fill-opacity="1" class="leaflet-clickable" d="M734 300L735 305L729 306L729 304L723 303L720 296L734 300z"></path>
    </g>
    <g>
        <path class="area49" stroke-linejoin="round" stroke-linecap="round" fill-rule="evenodd" stroke="#fff" stroke-opacity="1" stroke-width="1" fill="#AA1D0B" fill-opacity="1" class="leaflet-clickable" d="M737 311L741 316L745 314L742 315L743 317L737 325L731 319L734 316L731 315L731 313L733 313L734 309L735 310L736 308L737 311z"></path>
    </g>
    <g>
        <path class="area50" stroke-linejoin="round" stroke-linecap="round" fill-rule="evenodd" stroke="#fff" stroke-opacity="1" stroke-width="1" fill="#AA1D0B" fill-opacity="1" class="leaflet-clickable" d="M731 306L734 309L732 309L731 312L727 311L725 316L723 313L725 311L724 312L723 309L725 309L726 306L728 307L729 304L729 306L731 305z"></path>
    </g>
    <g>
        <path class="area51" stroke-linejoin="round" stroke-linecap="round" fill-rule="evenodd" stroke="#fff" stroke-opacity="1" stroke-width="1" fill="#AA1D0B" fill-opacity="1" class="leaflet-clickable" d="M588 107L594 119L593 120L600 116L602 118L603 123L607 127L612 121L611 120L614 120L609 135L606 132L604 133L609 140L606 146L602 145L600 141L597 142L597 146L595 146L595 144L594 145L590 139L584 141L587 133L591 131L593 131L593 133L595 131L594 127L590 125L584 127L578 114L571 107L573 105L572 104L574 100L578 102L578 109L583 109L585 111L586 108L588 108z"></path>
    </g>
    <g>
        <path class="area52" stroke-linejoin="round" stroke-linecap="round" fill-rule="evenodd" stroke="#fff" stroke-opacity="1" stroke-width="1" fill="#003399" fill-opacity="1" class="leaflet-clickable" d="M716 299L718 301L720 299L722 301L720 303L719 302L720 304L717 308L718 309L715 308L715 302L712 301L716 299z"></path>
    </g>
    <g>
        <path class="area53" stroke-linejoin="round" stroke-linecap="round" fill-rule="evenodd" stroke="#fff" stroke-opacity="1" stroke-width="1" fill="#003399" fill-opacity="1" class="leaflet-clickable" d="M722 301L724 304L726 302L726 304L728 304L728 306L726 306L725 309L723 308L723 313L722 309L720 308L719 310L717 308L721 301z"></path>
    </g>
    <g>
        <path class="area54" stroke-linejoin="round" stroke-linecap="round" fill-rule="evenodd" stroke="#fff" stroke-opacity="1" stroke-width="1" fill="#AA1D0B" fill-opacity="1" class="leaflet-clickable" d="M712 288L715 285L715 283L708 284L707 281L706 283L703 282L704 280L703 278L701 278L701 273L702 274L710 270L712 273L716 275L718 280L715 288L713 288z"></path>
    </g>
    <g>
        <path class="area55" stroke-linejoin="round" stroke-linecap="round" fill-rule="evenodd" stroke="#fff" stroke-opacity="1" stroke-width="1" fill="#003399" fill-opacity="1" class="leaflet-clickable" d="M712 288L705 290L703 282L705 283L706 281L712 285L714 283L714 287L712 288z"></path>
    </g>
    <g>
        <path class="area56" stroke-linejoin="round" stroke-linecap="round" fill-rule="evenodd" stroke="#fff" stroke-opacity="1" stroke-width="1" fill="#003399" fill-opacity="1" class="leaflet-clickable" d="M704 272L702 274L701 273L701 277L696 276L693 272L691 272L691 270L688 272L683 264L676 265L674 268L668 262L668 260L671 263L673 262L676 257L675 254L678 258L680 256L683 262L688 262L689 265L691 264L697 267L700 273L703 270L704 272z"></path>
    </g>
    <g>
        <path class="area57" stroke-linejoin="round" stroke-linecap="round" fill-rule="evenodd" stroke="#fff" stroke-opacity="1" stroke-width="1" fill="#AA1D0B" fill-opacity="1" class="leaflet-clickable" d="M691 271L690 272L692 272L693 275L702 281L700 283L703 290L694 282L694 280L692 281L685 275L687 271L691 271z"></path>
    </g>
    <g>
        <path class="area58" stroke-linejoin="round" stroke-linecap="round" fill-rule="evenodd" stroke="#fff" stroke-opacity="1" stroke-width="1" fill="#003399" fill-opacity="1" class="leaflet-clickable" d="M701 278L704 279L703 286L705 290L707 290L705 293L703 293L701 290L702 288L702 290L700 284L702 281L691 272L692 271L691 272L693 272L696 276L700 277z"></path>
    </g>
    <g>
        <path class="area59" stroke-linejoin="round" stroke-linecap="round" fill-rule="evenodd" stroke="#fff" stroke-opacity="1" stroke-width="1" fill="#AA1D0B" fill-opacity="1" class="leaflet-clickable" d="M169 335L44 335L57 327L67 327L69 325L86 319L93 319L93 315L99 306L104 307L106 305L113 304L117 300L116 299L118 297L118 291L120 291L123 288L124 289L127 286L128 287L129 284L131 286L135 282L139 284L142 283L146 280L143 277L144 276L149 278L151 282L151 296L147 302L160 302L159 303L164 314L169 335z"></path>
    </g>
    <g>
        <path class="area60" stroke-linejoin="round" stroke-linecap="round" fill-rule="evenodd" stroke="#fff" stroke-opacity="1" stroke-width="1" fill="#AA1D0B" fill-opacity="1" class="leaflet-clickable" d="M289 256L287 258L289 261L297 269L299 267L300 269L299 274L294 276L295 281L277 287L275 285L270 286L266 284L255 293L253 293L253 295L247 288L244 291L243 290L245 287L239 290L235 290L226 297L223 292L216 294L213 285L207 287L206 286L206 288L202 288L202 290L199 287L194 288L192 290L192 284L189 285L187 283L183 285L184 282L180 276L179 271L177 271L174 259L169 254L168 255L194 232L201 228L201 230L203 230L196 235L202 239L202 247L210 255L210 257L216 257L220 261L219 262L221 262L225 266L236 266L239 263L241 263L242 260L243 261L246 258L248 258L251 255L251 253L254 252L266 262L269 262L270 260L278 257L287 255L289 256z"></path>
    </g>
    <g>
        <path class="area61" stroke-linejoin="round" stroke-linecap="round" fill-rule="evenodd" stroke="#fff" stroke-opacity="1" stroke-width="1" fill="#AA1D0B" fill-opacity="1" class="leaflet-clickable" d="M486 129L486 131L482 135L488 139L489 137L491 141L490 144L496 146L494 148L499 150L499 158L506 163L511 158L513 161L514 160L516 162L512 169L512 173L507 172L505 170L499 171L493 174L493 176L487 177L484 169L482 171L481 170L482 163L479 163L472 167L465 160L468 158L467 152L464 153L464 151L460 149L471 140L471 135L451 121L449 119L450 114L455 107L459 107L463 111L465 117L472 121L469 126L472 127L472 129L473 128L476 131L480 127L484 126L486 128z"></path>
    </g>
    <g>
        <path class="area62" stroke-linejoin="round" stroke-linecap="round" fill-rule="evenodd" stroke="#fff" stroke-opacity="1" stroke-width="1" fill="#AA1D0B" fill-opacity="1" class="leaflet-clickable" d="M608 222L607 224L603 221L601 222L603 224L602 225L595 226L595 224L598 225L600 221L596 221L598 219L596 217L600 214L601 215L602 212L603 214L604 212L605 213L605 215L603 215L602 217L605 218L608 222z"></path>
    </g>
    <g>
        <path class="area63" stroke-linejoin="round" stroke-linecap="round" fill-rule="evenodd" stroke="#fff" stroke-opacity="1" stroke-width="1" fill="#AA1D0B" fill-opacity="1" class="leaflet-clickable" d="M592 225L590 227L590 231L592 232L591 236L593 239L591 242L584 245L580 244L575 249L571 247L573 239L571 237L570 238L570 236L567 234L566 235L560 232L559 235L557 235L554 238L553 237L551 239L549 237L552 216L554 214L550 212L552 208L549 205L546 203L538 210L536 210L525 205L524 200L527 197L528 198L530 194L536 191L538 181L540 178L558 187L567 195L570 202L577 204L571 206L572 209L570 213L573 216L575 216L577 220L581 219L584 222L588 222L592 225z"></path>
    </g>
    <g>
        <path class="area64" stroke-linejoin="round" stroke-linecap="round" fill-rule="evenodd" stroke="#fff" stroke-opacity="1" stroke-width="1" fill="#AA1D0B" fill-opacity="1" class="leaflet-clickable" d="M295 281L298 288L311 303L321 297L324 304L337 323L333 329L323 329L321 335L323 339L301 338L295 329L298 325L295 324L295 326L293 326L294 327L283 311L279 314L279 316L263 316L245 322L242 320L240 315L237 314L236 308L233 308L236 304L238 304L236 302L222 306L220 309L211 297L222 292L225 297L230 295L235 290L239 290L244 287L244 291L247 288L253 295L253 293L255 293L266 284L270 286L275 285L277 287L295 281z"></path>
    </g>
    <g>
        <path class="area65" stroke-linejoin="round" stroke-linecap="round" fill-rule="evenodd" stroke="#fff" stroke-opacity="1" stroke-width="1" fill="#AA1D0B" fill-opacity="1" class="leaflet-clickable" d="M185 330L184 329L184 331L183 330L175 335L169 335L164 314L159 303L160 302L147 302L151 296L151 282L147 276L143 276L145 280L142 283L139 284L135 282L131 286L130 285L130 277L133 274L135 274L142 268L148 266L155 261L156 262L164 259L169 254L174 259L177 271L179 271L182 277L181 278L184 283L183 285L187 283L189 285L192 284L192 290L197 287L201 288L201 290L207 286L208 287L212 285L214 287L216 294L213 295L209 300L203 304L200 305L198 303L190 306L194 305L199 311L203 313L205 316L204 317L206 317L207 320L205 320L206 321L204 323L198 323L199 324L192 330L193 324L191 324L186 329L186 327L184 326L183 327L186 329z"></path>
    </g>
    <g>
        <path class="area66" stroke-linejoin="round" stroke-linecap="round" fill-rule="evenodd" stroke="#fff" stroke-opacity="1" stroke-width="1" fill="#AA1D0B" fill-opacity="1" class="leaflet-clickable" d="M340 271L339 272L342 275L349 273L351 271L351 275L348 279L349 280L353 280L367 275L368 288L365 291L366 293L361 296L362 297L360 301L357 304L349 307L347 311L343 313L342 318L338 318L336 321L324 304L321 297L312 303L310 302L296 285L294 276L296 276L306 268L315 265L325 279L329 276L330 277L332 273L330 273L330 271L328 272L327 269L331 267L329 265L335 262L337 266L339 266L340 263L342 268L340 270z"></path>
    </g>
    <g>
        <path class="area67" stroke-linejoin="round" stroke-linecap="round" fill-rule="evenodd" stroke="#fff" stroke-opacity="1" stroke-width="1" fill="#AA1D0B" fill-opacity="1" class="leaflet-clickable" d="M455 313L449 341L386 341L383 339L383 337L386 336L385 331L389 327L393 330L393 324L395 324L399 320L398 325L403 328L406 329L407 325L411 325L417 327L416 328L422 332L428 333L430 335L431 334L430 331L427 330L428 329L430 330L432 328L431 327L434 325L437 326L434 330L435 331L437 331L439 328L438 327L440 325L436 321L438 318L441 316L445 316L446 313L451 316L452 313L455 313z"></path>
    </g>
    <g>
        <path class="area68" stroke-linejoin="round" stroke-linecap="round" fill-rule="evenodd" stroke="#fff" stroke-opacity="1" stroke-width="1" fill="#AA1D0B" fill-opacity="1" class="leaflet-clickable" d="M449 277L451 277L450 281L452 283L458 279L459 282L461 282L457 304L455 312L452 313L451 316L446 313L445 316L441 316L436 320L439 325L437 327L439 330L438 331L434 331L437 326L436 325L434 325L431 327L432 328L430 330L429 329L427 331L429 331L431 335L420 331L420 329L411 325L407 325L406 330L401 326L398 326L399 320L395 324L393 324L393 330L390 327L386 329L386 333L382 331L383 326L381 326L381 317L383 315L381 313L377 313L378 309L400 313L411 306L415 285L419 285L419 283L425 288L427 288L425 283L432 282L432 279L434 279L436 277L435 276L438 274L442 277L444 277L446 274L449 277z"></path>
    </g>
    <g>
        <path class="area69" stroke-linejoin="round" stroke-linecap="round" fill-rule="evenodd" stroke="#fff" stroke-opacity="1" stroke-width="1" fill="#AA1D0B" fill-opacity="1" class="leaflet-clickable" d="M378 270L378 272L382 274L385 271L385 276L388 279L388 281L390 281L393 285L395 283L394 282L397 281L397 279L404 276L406 272L405 271L410 274L415 283L411 306L408 309L403 310L400 313L379 309L377 313L381 313L383 315L381 317L381 325L382 327L383 326L382 331L386 333L386 337L383 336L385 341L341 341L322 339L321 334L323 329L334 329L334 327L336 327L337 324L336 319L342 319L343 312L345 312L347 308L348 309L355 305L360 301L360 298L364 294L363 295L366 294L366 289L369 286L367 284L367 275L370 271L378 270z"></path>
    </g>
    <g>
        <path class="area70" stroke-linejoin="round" stroke-linecap="round" fill-rule="evenodd" stroke="#fff" stroke-opacity="1" stroke-width="1" fill="#AA1D0B" fill-opacity="1" class="leaflet-clickable" d="M383 248L379 250L375 249L371 253L376 253L377 258L375 260L378 264L380 264L377 270L375 269L370 271L364 277L353 280L348 279L351 276L351 272L345 275L341 275L339 272L348 272L351 269L349 269L349 263L345 263L345 261L335 256L339 253L335 241L351 231L353 228L348 228L348 225L358 218L365 221L373 215L376 215L375 216L381 227L371 241L382 247z"></path>
    </g>
    <g>
        <path class="area71" stroke-linejoin="round" stroke-linecap="round" fill-rule="evenodd" stroke="#fff" stroke-opacity="1" stroke-width="1" fill="#AA1D0B" fill-opacity="1" class="leaflet-clickable" d="M392 264L389 265L388 268L382 274L379 273L378 268L380 264L378 264L375 261L375 259L377 259L381 263L385 260L384 259L387 258L386 257L389 256L388 257L389 254L388 253L386 255L383 252L382 253L382 251L376 254L373 254L371 252L379 250L381 248L385 249L393 239L393 243L395 243L389 246L388 251L391 252L393 255L391 259L392 263z"></path>
    </g>
    <g>
        <path class="area72" stroke-linejoin="round" stroke-linecap="round" fill-rule="evenodd" stroke="#fff" stroke-opacity="1" stroke-width="1" fill="#003399" fill-opacity="1" class="leaflet-clickable" d="M377 258L376 255L380 251L382 251L382 253L383 252L386 255L388 253L389 254L389 256L386 257L387 258L384 259L385 260L382 263L380 263L380 261L378 261L377 258z"></path>
    </g>
    <g>
        <path class="area73" stroke-linejoin="round" stroke-linecap="round" fill-rule="evenodd" stroke="#fff" stroke-opacity="1" stroke-width="1" fill="#AA1D0B" fill-opacity="1" class="leaflet-clickable" d="M464 245L465 246L462 249L463 250L459 253L459 251L450 256L449 254L442 255L429 282L425 282L427 287L425 289L422 285L420 285L420 283L416 285L410 274L405 271L406 272L404 276L402 275L400 279L397 278L397 282L395 281L393 285L385 276L386 269L388 269L390 265L397 263L399 265L398 266L402 268L403 267L401 265L402 262L404 262L404 258L406 260L415 258L417 262L422 264L424 261L426 263L430 263L433 260L433 252L440 249L440 247L443 248L445 244L448 245L446 249L449 251L454 250L454 248L451 247L453 245L452 242L455 241L455 239L458 244L459 243L464 245z"></path>
    </g>
    <g>
        <path class="area74" stroke-linejoin="round" stroke-linecap="round" fill-rule="evenodd" stroke="#fff" stroke-opacity="1" stroke-width="1" fill="#003399" fill-opacity="1" class="leaflet-clickable" d="M615 271L615 290L634 278L647 288L651 288L651 286L652 287L655 284L652 283L656 281L657 284L660 283L663 286L663 291L656 295L655 292L653 293L649 290L642 295L639 295L640 304L649 302L651 306L653 305L653 311L651 311L650 314L652 320L650 324L646 324L646 326L652 329L657 325L658 326L660 322L668 323L661 330L659 334L660 336L658 338L659 341L556 341L558 308L552 308L552 304L551 307L550 306L553 302L552 298L550 298L551 295L549 293L543 293L540 288L541 285L545 283L553 288L560 287L565 291L571 291L575 289L574 284L580 281L585 285L585 289L593 289L595 284L598 281L600 281L603 277L603 270L606 266L609 265L609 267L607 267L605 271L606 274L610 275L614 271z"></path>
    </g>
    <g>
        <path class="area75" stroke-linejoin="round" stroke-linecap="round" fill-rule="evenodd" stroke="#fff" stroke-opacity="1" stroke-width="1" fill="#003399" fill-opacity="1" class="leaflet-clickable" d="M627 254L628 255L625 259L627 263L623 264L624 265L618 270L617 269L608 276L605 272L610 265L606 266L602 270L604 272L602 275L603 277L593 286L593 290L591 288L585 289L585 285L581 281L579 281L578 283L575 282L575 289L571 291L570 290L569 273L589 264L589 262L591 262L592 259L595 258L599 262L602 259L603 260L609 258L614 259L614 263L618 261L622 263L624 262L622 259L624 259L624 255L626 254z"></path>
    </g>
    <g>
        <path class="area76" stroke-linejoin="round" stroke-linecap="round" fill-rule="evenodd" stroke="#fff" stroke-opacity="1" stroke-width="1" fill="#AA1D0B" fill-opacity="1" class="leaflet-clickable" d="M597 244L602 245L604 247L611 246L611 248L614 249L616 257L618 255L616 262L614 263L614 259L609 258L603 260L602 259L599 262L595 258L592 259L591 256L588 257L587 255L583 259L578 254L579 251L574 250L580 244L584 245L590 243L593 246L593 248L595 248L597 244z"></path>
    </g>
    <g>
        <path class="area77" stroke-linejoin="round" stroke-linecap="round" fill-rule="evenodd" stroke="#fff" stroke-opacity="1" stroke-width="1" fill="#AA1D0B" fill-opacity="1" class="leaflet-clickable" d="M627 253L625 254L627 254L624 256L622 260L624 261L622 264L622 262L616 262L618 256L617 255L617 257L615 255L615 251L613 248L611 248L611 246L604 247L602 245L597 244L599 241L600 242L602 240L602 238L604 238L602 242L605 242L609 239L610 243L613 242L615 238L618 239L619 242L621 242L624 239L624 235L620 232L622 228L624 232L626 232L632 238L633 237L631 242L632 245L628 245L629 248L627 252z"></path>
    </g>
    <g>
        <path class="area78" stroke-linejoin="round" stroke-linecap="round" fill-rule="evenodd" stroke="#fff" stroke-opacity="1" stroke-width="1" fill="#003399" fill-opacity="1" class="leaflet-clickable" d="M613 216L616 221L628 226L638 236L639 235L643 239L648 240L650 242L656 242L657 246L660 243L659 246L661 246L659 248L663 248L663 260L658 264L653 260L652 255L650 254L645 258L644 254L628 254L628 245L632 245L631 242L633 237L632 238L626 232L624 232L622 228L620 232L617 231L617 225L609 220L610 219L606 215L606 213L610 211L613 215z"></path>
    </g>
    <g>
        <path class="area79" stroke-linejoin="round" stroke-linecap="round" fill-rule="evenodd" stroke="#fff" stroke-opacity="1" stroke-width="1" fill="#AA1D0B" fill-opacity="1" class="leaflet-clickable" d="M635 187L638 188L636 190L639 191L641 196L640 197L643 196L642 200L645 201L643 203L645 203L649 207L654 208L655 211L658 210L660 212L658 215L659 216L653 218L652 220L652 222L655 223L653 227L656 228L658 224L660 224L661 227L663 223L665 224L662 229L668 226L670 232L672 232L675 236L672 240L664 238L661 241L661 245L660 246L659 243L657 245L656 242L650 242L648 240L643 239L639 235L638 236L628 226L623 225L614 219L613 216L617 212L616 209L622 201L621 198L620 199L621 197L630 185L633 188L632 187L634 187z"></path>
    </g>
    <g>
        <path class="area80" stroke-linejoin="round" stroke-linecap="round" fill-rule="evenodd" stroke="#fff" stroke-opacity="1" stroke-width="1" fill="#AA1D0B" fill-opacity="1" class="leaflet-clickable" d="M697 262L696 263L699 265L706 264L707 269L705 272L703 272L703 270L700 273L698 267L691 264L688 265L688 263L683 262L682 259L680 259L681 258L675 254L676 255L672 263L669 260L667 262L663 262L663 248L659 248L661 246L661 240L665 238L672 239L674 236L688 254L697 262z"></path>
    </g>
    <g>
        <path class="area81" stroke-linejoin="round" stroke-linecap="round" fill-rule="evenodd" stroke="#fff" stroke-opacity="1" stroke-width="1" fill="#AA1D0B" fill-opacity="1" class="leaflet-clickable" d="M672 189L671 190L675 198L680 199L681 203L686 204L690 212L689 214L693 219L703 219L705 223L715 225L709 230L712 233L716 230L717 231L720 241L717 254L716 252L714 252L712 248L705 243L705 247L702 247L707 256L710 258L695 261L686 252L673 233L670 232L668 227L667 226L664 230L662 228L665 224L664 223L662 223L663 226L661 227L660 224L658 224L656 228L653 227L655 223L653 223L652 220L655 217L656 218L660 213L659 210L655 211L654 208L649 206L648 207L645 203L643 203L645 201L642 199L643 196L640 197L641 196L638 191L639 190L637 190L636 189L638 189L634 185L635 180L637 178L645 178L643 173L639 173L640 170L636 166L638 164L638 160L641 161L641 157L644 156L644 158L646 156L647 162L649 164L651 162L658 166L660 176L663 177L664 181L672 189z"></path>
    </g>
    <g>
        <path class="area82" stroke-linejoin="round" stroke-linecap="round" fill-rule="evenodd" stroke="#fff" stroke-opacity="1" stroke-width="1" fill="#AA1D0B" fill-opacity="1" class="leaflet-clickable" d="M721 296L718 301L716 299L718 299L718 295L716 293L715 294L718 293L721 296z"></path>
    </g>
    <g>
        <path class="area83" stroke-linejoin="round" stroke-linecap="round" fill-rule="evenodd" stroke="#fff" stroke-opacity="1" stroke-width="1" fill="#AA1D0B" fill-opacity="1" class="leaflet-clickable" d="M738 180L742 180L739 183z"></path>
    </g>
    <g>
        <path class="area84" stroke-linejoin="round" stroke-linecap="round" fill-rule="evenodd" stroke="#fff" stroke-opacity="1" stroke-width="1" fill="#AA1D0B" fill-opacity="1" class="leaflet-clickable" d="M772 180L774 181L774 178L777 175L811 171L802 189L799 192L797 189L792 190L786 198L780 211L778 218L779 224L773 235L774 238L764 254L762 255L761 263L758 270L750 277L749 274L747 276L748 279L746 280L744 278L744 271L741 266L740 260L744 238L746 236L749 221L760 202L759 200L761 197L766 197L768 193L771 191L769 186L765 186L769 182L770 183z"></path>
    </g>
    <g>
        <path class="area85" stroke-linejoin="round" stroke-linecap="round" fill-rule="evenodd" stroke="#fff" stroke-opacity="1" stroke-width="1" fill="#AA1D0B" fill-opacity="1" class="leaflet-clickable" d="M742 194L742 192L745 194L744 197L742 196z"></path>
    </g>
    <g>
        <path class="area86" stroke-linejoin="round" stroke-linecap="round" fill-rule="evenodd" stroke="#fff" stroke-opacity="1" stroke-width="1" fill="#AA1D0B" fill-opacity="1" class="leaflet-clickable" d="M672 189L671 186L666 183L662 177L660 177L658 166L651 162L649 164L645 156L645 158L643 156L642 157L641 161L638 160L638 164L636 166L640 170L639 173L643 173L645 177L643 179L638 178L635 180L635 186L632 187L633 188L630 185L626 187L626 185L622 183L622 181L625 180L621 172L619 170L617 172L615 150L617 146L621 146L620 141L623 134L627 136L635 135L638 134L639 132L643 132L647 128L650 131L650 135L648 138L655 145L655 150L659 151L666 156L673 155L677 159L680 156L686 157L688 162L694 167L696 172L700 173L700 175L704 178L718 185L720 187L720 190L718 196L714 196L715 209L711 214L716 216L717 219L709 219L699 213L696 216L693 213L694 211L689 201L678 195L673 188z"></path>
    </g>
    <g>
        <path class="area87" stroke-linejoin="round" stroke-linecap="round" fill-rule="evenodd" stroke="#fff" stroke-opacity="1" stroke-width="1" fill="#AA1D0B" fill-opacity="1" class="leaflet-clickable" d="M632 91L631 95L634 92L644 92L639 96L639 101L634 103L628 95L618 90L620 88L621 89L624 84L627 87L627 85L628 86L630 82L633 84L633 86L631 86L632 91z"></path>
    </g>
    <g>
        <path class="area88" stroke-linejoin="round" stroke-linecap="round" fill-rule="evenodd" stroke="#fff" stroke-opacity="1" stroke-width="1" fill="#AA1D0B" fill-opacity="1" class="leaflet-clickable" d="M604 44L603 45L601 42L598 44L598 48L594 54L595 55L590 52L586 54L584 51L586 46L577 46L577 48L573 47L573 49L571 49L570 51L563 48L562 42L552 40L551 41L547 38L548 37L546 35L551 28L552 24L559 28L576 43L582 26L585 21L589 20L595 23L599 22L603 28L607 29L610 32L608 36L604 39L604 43z"></path>
    </g>
    <g>
        <path class="area89" stroke-linejoin="round" stroke-linecap="round" fill-rule="evenodd" stroke="#fff" stroke-opacity="1" stroke-width="1" fill="#AA1D0B" fill-opacity="1" class="leaflet-clickable" d="M604 44L609 48L605 48L603 52L603 62L599 62L597 65L594 66L566 57L560 60L555 56L552 57L546 54L547 51L545 47L541 47L547 38L550 41L553 40L557 42L563 42L562 46L569 51L573 48L577 48L577 46L585 46L586 47L584 52L586 54L590 52L595 55L594 54L599 46L599 43L603 45z"></path>
    </g>
    <g>
        <path class="area90" stroke-linejoin="round" stroke-linecap="round" fill-rule="evenodd" stroke="#fff" stroke-opacity="1" stroke-width="1" fill="#003399" fill-opacity="1" class="leaflet-clickable" d="M617 57L613 59L614 62L608 69L605 67L605 73L603 76L601 76L600 71L595 70L591 75L593 77L591 79L586 78L592 65L597 65L600 62L603 62L603 60L607 59L606 57L610 55L611 56L613 53L615 53L617 56z"></path>
    </g>
    <g>
        <path class="area91" stroke-linejoin="round" stroke-linecap="round" fill-rule="evenodd" stroke="#fff" stroke-opacity="1" stroke-width="1" fill="#003399" fill-opacity="1" class="leaflet-clickable" d="M619 58L618 63L614 64L614 66L616 65L618 69L616 69L615 67L613 70L614 71L608 69L615 60L613 58L614 59L618 57z"></path>
    </g>
    <g>
        <path class="area92" stroke-linejoin="round" stroke-linecap="round" fill-rule="evenodd" stroke="#fff" stroke-opacity="1" stroke-width="1" fill="#003399" fill-opacity="1" class="leaflet-clickable" d="M626 69L618 69L616 65L614 65L618 63L619 58L623 61L625 65L624 66L626 68z"></path>
    </g>
    <g>
        <path class="area93" stroke-linejoin="round" stroke-linecap="round" fill-rule="evenodd" stroke="#fff" stroke-opacity="1" stroke-width="1" fill="#003399" fill-opacity="1" class="leaflet-clickable" d="M632 66L633 67L630 72L621 75L616 75L620 73L622 69L626 70L626 68L630 68L629 66L631 66z"></path>
    </g>
    <g>
        <path class="area94" stroke-linejoin="round" stroke-linecap="round" fill-rule="evenodd" stroke="#fff" stroke-opacity="1" stroke-width="1" fill="#003399" fill-opacity="1" class="leaflet-clickable" d="M636 70L638 73L632 76L631 75L629 77L627 72L631 72L633 68L636 70z"></path>
    </g>
    <g>
        <path class="area95" stroke-linejoin="round" stroke-linecap="round" fill-rule="evenodd" stroke="#fff" stroke-opacity="1" stroke-width="1" fill="#003399" fill-opacity="1" class="leaflet-clickable" d="M640 77L637 81L637 79L631 80L631 76L637 73L640 77z"></path>
    </g>
    <g>
        <path class="area96" stroke-linejoin="round" stroke-linecap="round" fill-rule="evenodd" stroke="#fff" stroke-opacity="1" stroke-width="1" fill="#003399" fill-opacity="1" class="leaflet-clickable" d="M642 77L646 81L638 81L638 79L641 77z"></path>
    </g>
    <g>
        <path class="area97" stroke-linejoin="round" stroke-linecap="round" fill-rule="evenodd" stroke="#fff" stroke-opacity="1" stroke-width="1" fill="#003399" fill-opacity="1" class="leaflet-clickable" d="M648 85L647 92L636 92L640 86L639 89L643 88L645 83L646 85z"></path>
    </g>
    <g>
        <path class="area98" stroke-linejoin="round" stroke-linecap="round" fill-rule="evenodd" stroke="#fff" stroke-opacity="1" stroke-width="1" fill="#AA1D0B" fill-opacity="1" class="leaflet-clickable" d="M592 65L586 78L589 83L582 89L588 92L582 95L579 94L579 98L582 100L581 103L582 104L585 100L586 101L585 104L588 107L586 108L587 110L586 111L583 109L578 109L578 103L575 100L573 100L572 103L573 110L578 115L580 120L576 122L563 121L563 123L561 113L559 111L555 111L555 105L553 105L545 114L540 112L539 113L529 102L531 101L532 95L530 91L535 86L539 86L542 84L545 79L541 78L541 75L537 70L541 70L541 68L542 69L545 66L546 67L547 66L543 64L544 63L552 63L552 59L554 59L555 56L560 61L563 57L566 57L591 65z"></path>
    </g>
    <g>
        <path class="area99" stroke-linejoin="round" stroke-linecap="round" fill-rule="evenodd" stroke="#fff" stroke-opacity="1" stroke-width="1" fill="#AA1D0B" fill-opacity="1" class="leaflet-clickable" d="M424 228L416 236L416 238L412 237L410 241L405 244L406 249L408 251L416 249L428 250L431 248L428 244L434 241L437 242L436 243L440 247L440 249L433 252L433 259L429 263L426 263L424 261L423 264L418 262L416 260L417 259L414 258L411 260L407 260L404 258L404 262L403 261L401 265L403 267L400 268L400 266L399 267L397 263L396 265L395 263L393 265L392 264L393 263L391 259L393 255L388 251L389 246L393 245L395 242L394 243L392 239L385 249L371 241L381 227L375 217L375 214L365 221L354 215L351 210L355 206L354 205L362 191L373 180L384 180L388 186L393 188L401 188L406 193L409 189L413 191L407 205L407 214L417 221L417 223L423 228z"></path>
    </g>
    <g>
        <path class="area100" stroke-linejoin="round" stroke-linecap="round" fill-rule="evenodd" stroke="#fff" stroke-opacity="1" stroke-width="1" fill="#AA1D0B" fill-opacity="1" class="leaflet-clickable" d="M574 249L575 251L579 251L578 254L583 259L587 255L589 257L590 256L592 259L585 266L579 267L577 270L569 273L570 291L563 291L560 287L553 288L546 283L540 285L542 289L541 291L543 293L549 293L551 295L550 298L552 298L553 303L551 303L550 307L552 304L552 308L558 308L556 341L494 341L493 338L496 333L496 326L501 324L507 330L510 331L501 324L515 303L520 280L525 279L527 277L534 278L539 275L539 248L537 248L537 250L535 249L535 251L531 254L524 254L518 250L535 220L538 217L538 210L545 203L552 209L550 211L551 213L552 212L554 214L552 216L548 237L552 239L552 237L553 238L560 233L570 235L570 237L572 237L573 240L571 246L574 249z"></path>
    </g>
    <g>
        <path class="area101" stroke-linejoin="round" stroke-linecap="round" fill-rule="evenodd" stroke="#fff" stroke-opacity="1" stroke-width="1" fill="#AA1D0B" fill-opacity="1" class="leaflet-clickable" d="M518 250L524 254L532 254L535 250L537 250L537 248L539 248L539 274L537 277L534 278L527 277L525 279L520 280L515 303L501 324L505 328L510 330L510 332L501 324L498 325L495 330L496 333L493 338L494 341L449 341L461 282L459 282L458 279L452 283L450 281L451 278L450 276L449 277L452 274L452 272L454 272L457 269L459 264L461 264L462 267L467 269L467 267L470 269L474 267L476 261L480 261L482 265L487 266L490 263L493 264L497 262L506 250L506 244L506 246L508 246L510 250L511 249L514 252L518 250z"></path>
    </g>
    <g>
        <path class="area102" stroke-linejoin="round" stroke-linecap="round" fill-rule="evenodd" stroke="#fff" stroke-opacity="1" stroke-width="1" fill="#AA1D0B" fill-opacity="1" class="leaflet-clickable" d="M471 236L467 240L465 240L465 242L463 242L464 245L460 243L459 244L455 239L455 241L452 242L453 245L451 247L453 247L454 250L449 251L446 248L448 245L447 244L445 244L443 248L440 247L436 243L437 242L434 241L428 245L431 247L431 249L429 250L417 249L408 251L405 246L405 244L408 243L412 237L415 238L419 232L420 233L426 226L427 227L430 224L428 222L429 219L435 222L436 227L439 231L444 231L446 233L448 231L450 235L453 232L456 233L457 236L465 236L468 233L471 235z"></path>
    </g>
    <g>
        <path class="area103" stroke-linejoin="round" stroke-linecap="round" fill-rule="evenodd" stroke="#fff" stroke-opacity="1" stroke-width="1" fill="#AA1D0B" fill-opacity="1" class="leaflet-clickable" d="M473 214L478 227L481 226L478 229L479 230L471 236L468 233L465 236L457 236L456 233L454 234L452 232L451 235L449 231L439 231L436 227L435 222L430 219L428 219L428 223L430 224L427 227L422 227L417 223L417 221L407 214L407 205L414 191L409 189L406 193L401 188L388 187L384 180L374 180L380 173L382 165L385 162L383 160L386 157L385 154L393 146L395 146L395 144L397 144L405 149L417 151L423 154L421 155L421 157L429 155L424 164L428 167L432 161L438 159L441 155L443 155L446 156L446 158L448 159L455 159L455 163L457 161L461 163L461 166L459 168L463 170L463 172L465 170L464 169L471 169L469 177L467 177L463 181L465 182L462 185L455 188L456 191L454 197L456 196L459 199L461 199L463 201L463 207L471 209L470 210L473 213z"></path>
    </g>
    <g>
        <path class="area104" stroke-linejoin="round" stroke-linecap="round" fill-rule="evenodd" stroke="#fff" stroke-opacity="1" stroke-width="1" fill="#AA1D0B" fill-opacity="1" class="leaflet-clickable" d="M512 173L513 174L511 176L514 177L510 185L505 187L508 188L512 195L508 199L510 202L513 203L516 198L517 202L520 204L527 205L531 208L536 209L538 217L535 220L518 250L514 252L511 249L510 250L510 248L508 248L506 244L506 250L493 264L490 263L487 266L482 265L480 261L476 261L474 267L470 269L468 267L462 267L461 264L459 264L457 270L454 272L453 271L448 278L446 274L444 277L442 277L439 274L436 276L435 275L434 276L436 277L432 279L432 282L429 283L442 255L449 253L450 255L452 255L456 252L457 253L459 251L459 253L463 251L463 247L465 247L463 241L465 242L465 240L467 240L475 233L474 232L479 231L481 227L479 227L477 224L473 213L474 210L478 207L476 198L477 194L479 194L482 191L481 190L484 191L485 186L491 186L489 179L487 177L496 174L498 171L504 170L507 172L512 172z"></path>
    </g>
</svg>